<svg version="1.1" id="Layer_1" xmlns="http://www.w3.org/2000/svg" xmlns:xlink="http://www.w3.org/1999/xlink" x="0px" y="0px"
	 width="100%" viewBox="0 0 200 200" enable-background="new 0 0 200 200" xml:space="preserve">
<path fill="#FEFFFE" opacity="1.000000" stroke="none" 
	d="
M140.000000,201.000000 
	C93.333336,201.000000 47.166672,201.000000 1.000006,201.000000 
	C1.000004,134.333344 1.000004,67.666679 1.000002,1.000015 
	C67.666656,1.000010 134.333313,1.000010 200.999969,1.000005 
	C200.999985,67.666649 200.999985,134.333298 201.000000,200.999969 
	C180.833328,201.000000 160.666672,201.000000 140.000000,201.000000 
M154.971985,138.030701 
	C154.971985,138.030701 154.902512,138.150970 154.672974,137.592209 
	C154.127914,137.394058 153.582870,137.195908 152.999359,137.012650 
	C152.999359,137.012650 152.990860,136.972275 152.694916,136.506958 
	C152.357040,136.392563 152.019165,136.278168 151.029404,135.989639 
	C142.306870,130.412827 133.584335,124.835999 124.953339,118.352692 
	C125.002945,117.747063 125.052559,117.141441 125.764091,116.530067 
	C136.734177,109.768936 147.704269,103.007797 159.256516,95.887871 
	C139.907074,83.698959 121.383392,72.000122 102.790840,60.411789 
	C101.911613,59.863789 100.123009,59.814224 99.260414,60.346645 
	C89.080307,66.630196 78.990257,73.060028 68.920265,79.519569 
	C68.666840,79.682137 68.912704,80.623047 68.485428,81.692078 
	C66.581085,82.950157 63.282585,83.541321 66.027031,87.844864 
	C66.007156,89.565407 65.987274,91.285957 65.473419,93.371399 
	C65.640602,94.245903 65.807777,95.120407 66.049721,96.930405 
	C66.033829,104.619507 66.017937,112.308617 65.467117,120.425125 
	C64.667572,123.236534 66.172928,124.636703 68.458282,123.477577 
	C70.929413,122.224243 72.823151,119.832504 75.298218,117.487335 
	C75.810371,117.286896 76.322525,117.086464 77.580093,116.958397 
	C78.359039,116.271683 79.137985,115.584969 79.995316,114.918663 
	C79.995316,114.918663 79.915939,114.934006 80.402672,114.790916 
	C80.601677,114.526573 80.800682,114.262238 81.334541,113.508987 
	C81.879257,113.297920 82.423973,113.086861 83.318985,113.398819 
	C84.204247,112.580070 85.089508,111.761314 86.288979,110.792503 
	C86.288979,110.792503 86.635857,110.762177 87.397995,110.866341 
	C88.926941,109.570984 90.455887,108.275627 92.000305,106.999390 
	C92.000305,106.999390 91.982643,106.984596 92.731850,106.991028 
	C95.192970,104.966766 97.654091,102.942505 100.714584,101.024940 
	C101.514175,101.616753 102.313774,102.208565 102.950226,103.587204 
	C102.306221,106.049965 101.397789,108.477669 101.065712,110.981789 
	C99.868629,120.008766 104.053535,129.830063 97.006569,138.009979 
	C97.006569,138.009979 96.984734,138.013962 96.237022,138.008041 
	C93.837082,139.682129 91.437141,141.356216 88.704773,143.198944 
	C88.704773,143.198944 88.333397,143.231247 87.633629,143.142776 
	C87.098763,143.760117 86.563896,144.377457 85.695274,145.170685 
	C85.695274,145.170685 85.322006,145.225540 84.637131,145.143112 
	C84.094299,145.729767 83.551468,146.316422 82.452309,147.304962 
	C71.739334,153.944168 61.026360,160.583374 49.569252,167.135727 
	C48.396431,168.109055 47.223610,169.082382 45.759556,170.487213 
	C45.453712,170.641846 45.147873,170.796478 44.168743,170.986053 
	C43.507912,171.641403 42.847080,172.296768 42.186245,172.952118 
	C42.788544,172.982605 43.390846,173.013107 44.930641,173.005386 
	C46.923359,173.019226 48.916061,173.042252 50.908798,173.045547 
	C85.947914,173.103546 120.987030,173.159119 156.222626,173.479294 
	C156.222626,173.479294 156.674179,173.522568 156.674179,173.522568 
	C156.674179,173.522568 157.001968,173.171646 157.558136,173.062515 
	C157.747025,173.058609 157.935928,173.054688 158.817490,172.899139 
	C159.209229,171.604736 159.600967,170.310333 159.994003,168.991653 
	C159.994003,168.991653 160.017807,168.986633 160.640457,168.534409 
	C160.941742,167.945251 161.493195,167.361633 161.506424,166.766083 
	C161.679138,158.988754 161.839706,151.209305 161.789795,143.431778 
	C161.784943,142.675293 160.361877,141.927933 159.236633,141.115829 
	C159.236633,141.115829 158.989670,140.846344 158.770737,140.432526 
	C158.553024,140.177261 158.276413,140.051498 157.996323,139.998611 
	C157.996323,139.998611 157.952972,140.064377 157.700714,139.543015 
	C157.178177,139.346329 156.655640,139.149628 156.040405,138.988922 
	C156.040405,138.988922 156.012634,138.893433 155.762222,138.466614 
	C155.520508,138.203293 155.221634,138.087753 154.971985,138.030701 
M155.339020,90.112129 
	C156.694366,90.926125 158.049728,91.740120 160.054352,92.944061 
	C160.054352,83.949898 160.248886,75.823799 159.895142,67.721634 
	C159.821747,66.040367 158.058517,63.916782 156.489120,62.899120 
	C144.651535,55.223083 132.676331,47.758873 120.726105,40.257187 
	C114.785568,36.528057 108.807091,32.859364 102.108704,28.706333 
	C102.108704,36.277496 102.584122,42.789150 101.966454,49.195419 
	C101.418800,54.875515 103.763947,57.882717 108.318359,60.666786 
	C123.891914,70.186745 139.256500,80.048553 155.339020,90.112129 
z"/>
<path fill="#054F54" opacity="1.000000" stroke="none" 
	d="
M103.113373,102.800369 
	C102.313774,102.208565 101.514175,101.616753 100.234665,100.683899 
	C89.478394,93.962219 79.202049,87.581589 68.925705,81.200958 
	C68.912704,80.623047 68.666840,79.682137 68.920265,79.519569 
	C78.990257,73.060028 89.080307,66.630196 99.260414,60.346645 
	C100.123009,59.814224 101.911613,59.863789 102.790840,60.411789 
	C121.383392,72.000122 139.907074,83.698959 159.256516,95.887871 
	C147.704269,103.007797 136.734177,109.768936 125.231216,116.283012 
	C117.503357,111.624092 110.308365,107.212234 103.113373,102.800369 
z"/>
<path fill="#FBCC65" opacity="1.000000" stroke="none" 
	d="
M85.322006,145.225540 
	C85.322006,145.225540 85.695274,145.170685 86.174149,145.056152 
	C87.213142,144.371490 87.773270,143.801376 88.333397,143.231247 
	C88.333397,143.231247 88.704773,143.198944 89.216019,143.080200 
	C92.146416,141.312271 94.565575,139.663116 96.984734,138.013962 
	C96.984734,138.013962 97.006569,138.009979 97.389526,137.951080 
	C101.120392,135.675430 103.833847,137.677231 106.473671,139.346542 
	C118.834503,147.162994 131.181412,155.002640 143.461258,162.945389 
	C148.443481,166.167953 153.242462,169.673798 158.124817,173.050751 
	C157.935928,173.054688 157.747025,173.058609 157.033630,173.071960 
	C156.348129,173.126007 156.187149,173.170624 156.026154,173.215225 
	C120.987030,173.159119 85.947914,173.103546 50.908798,173.045547 
	C48.916061,173.042252 46.923359,173.019226 44.540588,172.750854 
	C44.381031,171.981247 44.611530,171.466171 44.842033,170.951111 
	C45.147873,170.796478 45.453712,170.641846 46.242268,170.240265 
	C47.921112,169.069733 49.117245,168.146149 50.313381,167.222565 
	C61.026360,160.583374 71.739334,153.944168 83.041672,147.099396 
	C84.194695,146.337753 84.758354,145.781647 85.322006,145.225540 
z"/>
<path fill="#F1A6BB" opacity="1.000000" stroke="none" 
	d="
M155.019913,89.946045 
	C139.256500,80.048553 123.891914,70.186745 108.318359,60.666786 
	C103.763947,57.882717 101.418800,54.875515 101.966454,49.195419 
	C102.584122,42.789150 102.108704,36.277496 102.108704,28.706333 
	C108.807091,32.859364 114.785568,36.528057 120.726105,40.257187 
	C132.676331,47.758873 144.651535,55.223083 156.489120,62.899120 
	C158.058517,63.916782 159.821747,66.040367 159.895142,67.721634 
	C160.248886,75.823799 160.054352,83.949898 160.054352,92.944061 
	C158.049728,91.740120 156.694366,90.926125 155.019913,89.946045 
z"/>
<path fill="#0A9E73" opacity="1.000000" stroke="none" 
	d="
M158.989670,140.846344 
	C158.989670,140.846344 159.236633,141.115829 159.539490,141.589294 
	C159.900848,151.037369 159.959335,160.012009 160.017807,168.986633 
	C160.017807,168.986633 159.994003,168.991653 159.647171,168.952911 
	C141.104782,157.526993 122.900764,146.153290 104.739273,134.712051 
	C103.852676,134.153519 102.757408,133.013596 102.741692,132.126999 
	C102.590843,123.616318 102.651413,115.101875 102.651413,105.946983 
	C110.662476,110.748558 117.762138,115.003876 124.861801,119.259186 
	C133.584335,124.835999 142.306870,130.412827 151.489380,136.321838 
	C152.296539,136.760132 152.643692,136.866211 152.990860,136.972275 
	C152.990860,136.972275 152.999359,137.012650 153.160034,137.259766 
	C153.847977,137.721588 154.375244,137.936279 154.902512,138.150970 
	C154.902512,138.150970 154.971985,138.030701 155.017899,138.313858 
	C155.380081,138.695831 155.696365,138.794632 156.012634,138.893433 
	C156.012634,138.893433 156.040405,138.988922 156.227295,139.217133 
	C156.927109,139.651703 157.440048,139.858032 157.952972,140.064377 
	C157.952972,140.064377 157.996323,139.998611 158.052032,140.260132 
	C158.329163,140.826889 158.623154,140.935120 158.989670,140.846344 
z"/>
<path fill="#FACD69" opacity="1.000000" stroke="none" 
	d="
M76.834686,116.886032 
	C76.322525,117.086464 75.810371,117.286896 74.786896,117.758362 
	C72.870781,118.830635 71.546852,119.936806 70.035843,120.337456 
	C68.807625,120.663124 67.355095,120.142853 66.002045,119.997719 
	C66.017937,112.308617 66.033829,104.619507 66.242447,96.273117 
	C66.279243,94.746056 66.123322,93.876274 65.967400,93.006500 
	C65.987274,91.285957 66.007156,89.565407 66.242416,87.206512 
	C67.303848,85.931847 68.598183,84.562828 68.930534,84.766159 
	C77.741180,90.156731 86.452599,95.709503 95.516121,101.446831 
	C94.051369,103.742432 93.017006,105.363518 91.982643,106.984596 
	C91.982643,106.984596 92.000305,106.999390 91.656265,107.051193 
	C89.753441,108.322723 88.194649,109.542450 86.635857,110.762177 
	C86.635857,110.762177 86.288979,110.792503 85.819122,110.895287 
	C84.555740,111.623978 83.762215,112.249886 82.968689,112.875793 
	C82.423973,113.086861 81.879257,113.297920 80.923782,113.826263 
	C80.313995,114.407021 80.114960,114.670509 79.915939,114.934006 
	C79.915939,114.934006 79.995316,114.918663 79.638840,114.940544 
	C78.466461,115.603622 77.650574,116.244827 76.834686,116.886032 
z"/>
<path fill="#E5F8E4" opacity="1.000000" stroke="none" 
	d="
M124.907570,118.805939 
	C117.762138,115.003876 110.662476,110.748558 102.651413,105.946983 
	C102.651413,115.101875 102.590843,123.616318 102.741692,132.126999 
	C102.757408,133.013596 103.852676,134.153519 104.739273,134.712051 
	C122.900764,146.153290 141.104782,157.526993 159.646515,168.965057 
	C159.600967,170.310333 159.209229,171.604736 158.471161,172.974945 
	C153.242462,169.673798 148.443481,166.167953 143.461258,162.945389 
	C131.181412,155.002640 118.834503,147.162994 106.473671,139.346542 
	C103.833847,137.677231 101.120392,135.675430 97.394279,137.941055 
	C104.053535,129.830063 99.868629,120.008766 101.065712,110.981789 
	C101.397789,108.477669 102.306221,106.049965 103.031799,103.193787 
	C110.308365,107.212234 117.503357,111.624092 124.900253,116.285889 
	C125.052559,117.141441 125.002945,117.747063 124.907570,118.805939 
z"/>
<path fill="#F5F7DF" opacity="1.000000" stroke="none" 
	d="
M92.357246,106.987808 
	C93.017006,105.363518 94.051369,103.742432 95.516121,101.446831 
	C86.452599,95.709503 77.741180,90.156731 68.930534,84.766159 
	C68.598183,84.562828 67.303848,85.931847 66.205048,86.777809 
	C63.282585,83.541321 66.581085,82.950157 68.705566,81.446518 
	C79.202049,87.581589 89.478394,93.962219 99.934975,100.630547 
	C97.654091,102.942505 95.192970,104.966766 92.357246,106.987808 
z"/>
<path fill="#E5F8E4" opacity="1.000000" stroke="none" 
	d="
M160.329132,168.760529 
	C159.959335,160.012009 159.900848,151.037369 159.719742,141.619537 
	C160.361877,141.927933 161.784943,142.675293 161.789795,143.431778 
	C161.839706,151.209305 161.679138,158.988754 161.506424,166.766083 
	C161.493195,167.361633 160.941742,167.945251 160.329132,168.760529 
z"/>
<path fill="#F5F7DF" opacity="1.000000" stroke="none" 
	d="
M65.734581,120.211426 
	C67.355095,120.142853 68.807625,120.663124 70.035843,120.337456 
	C71.546852,119.936806 72.870781,118.830635 74.622147,117.983353 
	C72.823151,119.832504 70.929413,122.224243 68.458282,123.477577 
	C66.172928,124.636703 64.667572,123.236534 65.734581,120.211426 
z"/>
<path fill="#E5F8E4" opacity="1.000000" stroke="none" 
	d="
M96.610878,138.011002 
	C94.565575,139.663116 92.146416,141.312271 89.382233,142.995880 
	C91.437141,141.356216 93.837082,139.682129 96.610878,138.011002 
z"/>
<path fill="#F5F7DF" opacity="1.000000" stroke="none" 
	d="
M87.016922,110.814255 
	C88.194649,109.542450 89.753441,108.322723 91.648529,107.041634 
	C90.455887,108.275627 88.926941,109.570984 87.016922,110.814255 
z"/>
<path fill="#E5F8E4" opacity="1.000000" stroke="none" 
	d="
M49.941315,167.179138 
	C49.117245,168.146149 47.921112,169.069733 46.387886,170.024506 
	C47.223610,169.082382 48.396431,168.109055 49.941315,167.179138 
z"/>
<path fill="#E5F8E4" opacity="1.000000" stroke="none" 
	d="
M44.505386,170.968582 
	C44.611530,171.466171 44.381031,171.981247 44.071838,172.769958 
	C43.390846,173.013107 42.788544,172.982605 42.186245,172.952118 
	C42.847080,172.296768 43.507912,171.641403 44.505386,170.968582 
z"/>
<path fill="#F5F7DF" opacity="1.000000" stroke="none" 
	d="
M83.143845,113.137314 
	C83.762215,112.249886 84.555740,111.623978 85.662018,110.970322 
	C85.089508,111.761314 84.204247,112.580070 83.143845,113.137314 
z"/>
<path fill="#F5F7DF" opacity="1.000000" stroke="none" 
	d="
M65.720413,93.188950 
	C66.123322,93.876274 66.279243,94.746056 66.205063,95.805374 
	C65.807777,95.120407 65.640602,94.245903 65.720413,93.188950 
z"/>
<path fill="#F5F7DF" opacity="1.000000" stroke="none" 
	d="
M77.207390,116.922211 
	C77.650574,116.244827 78.466461,115.603622 79.599648,114.930344 
	C79.137985,115.584969 78.359039,116.271683 77.207390,116.922211 
z"/>
<path fill="#E5F8E4" opacity="1.000000" stroke="none" 
	d="
M87.983513,143.187012 
	C87.773270,143.801376 87.213142,144.371490 86.341026,144.968201 
	C86.563896,144.377457 87.098763,143.760117 87.983513,143.187012 
z"/>
<path fill="#E5F8E4" opacity="1.000000" stroke="none" 
	d="
M84.979568,145.184326 
	C84.758354,145.781647 84.194695,146.337753 83.319832,146.898468 
	C83.551468,146.316422 84.094299,145.729767 84.979568,145.184326 
z"/>
<path fill="#E5F8E4" opacity="1.000000" stroke="none" 
	d="
M157.826843,139.803696 
	C157.440048,139.858032 156.927109,139.651703 156.273651,139.199158 
	C156.655640,139.149628 157.178177,139.346329 157.826843,139.803696 
z"/>
<path fill="#E5F8E4" opacity="1.000000" stroke="none" 
	d="
M154.787750,137.871582 
	C154.375244,137.936279 153.847977,137.721588 153.179260,137.252319 
	C153.582870,137.195908 154.127914,137.394058 154.787750,137.871582 
z"/>
<path fill="#E5F8E4" opacity="1.000000" stroke="none" 
	d="
M156.124390,173.347260 
	C156.187149,173.170624 156.348129,173.126007 156.755554,173.126526 
	C157.001968,173.171646 156.674179,173.522568 156.674179,173.522568 
	C156.674179,173.522568 156.222626,173.479294 156.124390,173.347260 
z"/>
<path fill="#E5F8E4" opacity="1.000000" stroke="none" 
	d="
M158.880203,140.639435 
	C158.623154,140.935120 158.329163,140.826889 158.024323,140.288452 
	C158.276413,140.051498 158.553024,140.177261 158.880203,140.639435 
z"/>
<path fill="#E5F8E4" opacity="1.000000" stroke="none" 
	d="
M155.887421,138.680023 
	C155.696365,138.794632 155.380081,138.695831 154.964691,138.358490 
	C155.221634,138.087753 155.520508,138.203293 155.887421,138.680023 
z"/>
<path fill="#E5F8E4" opacity="1.000000" stroke="none" 
	d="
M152.842896,136.739624 
	C152.643692,136.866211 152.296539,136.760132 151.815338,136.408920 
	C152.019165,136.278168 152.357040,136.392563 152.842896,136.739624 
z"/>
<path fill="#F5F7DF" opacity="1.000000" stroke="none" 
	d="
M80.159302,114.862457 
	C80.114960,114.670509 80.313995,114.407021 80.756348,114.070709 
	C80.800682,114.262238 80.601677,114.526573 80.159302,114.862457 
z"/>
</svg>